<svg xmlns="http://www.w3.org/2000/svg" viewBox="0 0 162.06 150.8"><defs><style>.cls-1{fill:#fff;}.cls-2{fill:#c36;}</style></defs><g id="Layer_2" data-name="Layer 2"><g id="Layer_1-2" data-name="Layer 1"><path class="cls-1" d="M28.73,48.66v28.7H22.08V65.59H9V77.36H2.4V48.66H9V60h13V48.66Z"/><path class="cls-1" d="M45.33,63c0-8.53,6.64-14.84,15.7-14.84S76.74,54.44,76.74,63,70.05,77.85,61,77.85,45.33,71.54,45.33,63ZM70,63c0-5.46-3.85-9.19-9-9.19s-9,3.73-9,9.19a9,9,0,1,0,18,0Z"/><path class="cls-1" d="M93.34,48.66H100V72h14.39v5.41h-21Z"/><path class="cls-1" d="M155.82,77.36l0-17.22-8.44,14.18h-3l-8.4-13.81V77.36h-6.23V48.66h5.49l10.74,17.83,10.58-17.83H162l.09,28.7Z"/><path class="cls-1" d="M0,98A9.79,9.79,0,0,1,10.16,88a9.39,9.39,0,0,1,7,2.71l-.9.93a8.2,8.2,0,0,0-6-2.32,8.62,8.62,0,1,0,0,17.24,8.23,8.23,0,0,0,6-2.35l.9.93a9.37,9.37,0,0,1-7,2.74A9.79,9.79,0,0,1,0,98Z"/><path class="cls-1" d="M35.53,107.76l-4.67-6.55a14.66,14.66,0,0,1-1.91.14h-5.6v6.41H21.92V88.16h7c4.93,0,7.9,2.46,7.9,6.61a6,6,0,0,1-4.59,6.13l4.9,6.86ZM29,100.09c4.2,0,6.44-2,6.44-5.32S33.15,89.45,29,89.45h-5.6v10.64Z"/><path class="cls-1" d="M55.61,106.47v1.29H42.08V88.16H55.19v1.29H43.51v7.73H54v1.26H43.51v8Z"/><path class="cls-1" d="M72.94,102.24H61.57l-2.49,5.52H57.54l9-19.6H68l9,19.6H75.46Zm-.53-1.2L67.26,89.73,62.13,101Z"/><path class="cls-1" d="M83.33,89.45H76.27V88.16H91.81v1.29h-7v18.31H83.33Z"/><path class="cls-1" d="M95.34,88.16h1.43v19.6H95.34Z"/><path class="cls-1" d="M101.72,98a10.2,10.2,0,1,1,10.2,9.94A9.81,9.81,0,0,1,101.72,98Zm18.93,0a8.75,8.75,0,1,0-8.73,8.62A8.46,8.46,0,0,0,120.65,98Z"/><path class="cls-1" d="M143,88.16v19.6h-1.17l-13.36-17v17h-1.43V88.16h1.21l13.33,17v-17Z"/><path class="cls-1" d="M147.87,105.24l.64-1.06a9.32,9.32,0,0,0,6.47,2.46c3.92,0,5.66-1.71,5.66-3.84,0-5.88-12.24-2.35-12.24-9.57,0-2.77,2.13-5.21,6.94-5.21a10.52,10.52,0,0,1,5.91,1.76l-.53,1.15a9.67,9.67,0,0,0-5.38-1.65c-3.81,0-5.51,1.76-5.51,3.92,0,5.88,12.23,2.41,12.23,9.52,0,2.77-2.21,5.18-7.05,5.18A10,10,0,0,1,147.87,105.24Z"/><path class="cls-2" d="M77.9.77c1.15-1.07,6-1,7.35,0-1.44,28.11,83.17-11.34,76.41,30.13h-7c2-28.69-62.28-1.5-72.5-18C71.94,29.4,7.67,2.21,9.66,30.9h-8C-5.08-10.59,79.41,28.91,77.9.77Z"/><path class="cls-2" d="M78.42,150c1.15,1.07,6,1,7.31,0-1.46-28.1,82.68,11.32,75.93-30.13h-7c2.85,30.49-61.89,1.86-72,19.41-10.12-17.55-74.84,11.09-72-19.41h-8C-4.07,161.37,80,121.9,78.42,150Z"/></g></g></svg>